<?xml version="1.0" encoding="utf-8"?>
<!-- Generator: Adobe Illustrator 26.5.0, SVG Export Plug-In . SVG Version: 6.00 Build 0)  -->
<svg version="1.1" id="圖層_1" xmlns="http://www.w3.org/2000/svg" xmlns:xlink="http://www.w3.org/1999/xlink" x="0px" y="0px"
	 viewBox="0 0 344.75 369.65" style="enable-background:new 0 0 344.75 369.65;" xml:space="preserve">
<style type="text/css">
	.st0{fill:#FFFFFF;}
	.st1{fill:#FFFFFF;stroke:#FFFFFF;stroke-width:4;stroke-linecap:round;stroke-linejoin:round;stroke-miterlimit:10;}
</style>
<g>
	<g>
		<g>
			<path class="st0" d="M231.73,273.03h-76.07c-2,0-3.62-1.62-3.62-3.62s1.62-3.62,3.62-3.62h76.07c2,0,3.62,1.62,3.62,3.62
				S233.73,273.03,231.73,273.03z"/>
			<path class="st0" d="M231.73,275.03h-76.07c-3.1,0-5.62-2.52-5.62-5.62s2.52-5.62,5.62-5.62h76.07c3.1,0,5.62,2.52,5.62,5.62
				S234.83,275.03,231.73,275.03z M155.66,267.79c-0.89,0-1.62,0.73-1.62,1.62s0.73,1.62,1.62,1.62h76.07
				c0.89,0,1.62-0.73,1.62-1.62s-0.73-1.62-1.62-1.62H155.66z"/>
		</g>
	</g>
	<g>
		<g>
			<path class="st0" d="M193.69,273.03c-2,0-3.62-1.62-3.62-3.62V150.64c0-2,1.62-3.62,3.62-3.62s3.62,1.62,3.62,3.62v118.77
				C197.31,271.41,195.69,273.03,193.69,273.03z"/>
			<path class="st0" d="M193.69,275.03c-3.1,0-5.62-2.52-5.62-5.62V150.64c0-3.1,2.52-5.62,5.62-5.62s5.62,2.52,5.62,5.62v118.77
				C199.31,272.51,196.79,275.03,193.69,275.03z M193.69,149.02c-0.89,0-1.62,0.73-1.62,1.62v118.77c0,0.89,0.73,1.62,1.62,1.62
				s1.62-0.73,1.62-1.62V150.64C195.31,149.75,194.59,149.02,193.69,149.02z"/>
		</g>
	</g>
	<g>
		<g>
			<g>
				<path class="st0" d="M193.69,224.22c-0.93,0-1.85-0.35-2.56-1.06c-1.41-1.41-1.41-3.71,0-5.12l28.42-28.42
					c1.41-1.41,3.71-1.41,5.12,0c1.41,1.41,1.41,3.71,0,5.12l-28.42,28.42C195.55,223.87,194.62,224.22,193.69,224.22z"/>
				<path class="st0" d="M193.69,226.22c-1.5,0-2.91-0.58-3.97-1.65c-2.19-2.19-2.19-5.76,0-7.95l28.42-28.42
					c2.19-2.19,5.75-2.19,7.95,0c1.06,1.06,1.65,2.47,1.65,3.98c0,1.5-0.58,2.91-1.65,3.98l-28.42,28.42
					C196.6,225.63,195.19,226.22,193.69,226.22z M222.11,190.55c-0.42,0-0.83,0.16-1.15,0.47l-28.42,28.42
					c-0.63,0.63-0.63,1.66,0,2.29c0.61,0.61,1.68,0.61,2.29,0l28.42-28.42c0.31-0.31,0.48-0.71,0.48-1.15
					c0-0.43-0.17-0.84-0.48-1.15C222.94,190.71,222.53,190.55,222.11,190.55z"/>
			</g>
		</g>
		<g>
			<g>
				<path class="st0" d="M193.69,177.86c-0.93,0-1.85-0.35-2.56-1.06c-1.41-1.41-1.41-3.71,0-5.12l17-17c1.41-1.41,3.71-1.41,5.12,0
					c1.41,1.41,1.41,3.71,0,5.12l-17,17C195.55,177.51,194.62,177.86,193.69,177.86z"/>
				<path class="st0" d="M193.69,179.86c-1.5,0-2.91-0.58-3.97-1.65c-2.19-2.19-2.19-5.76,0-7.95l17-17c2.19-2.19,5.76-2.19,7.95,0
					c2.19,2.19,2.19,5.76,0,7.95l-17,17C196.6,179.28,195.19,179.86,193.69,179.86z M210.69,155.62c-0.42,0-0.83,0.16-1.15,0.47
					l-17,17c-0.63,0.63-0.63,1.66,0,2.29c0.61,0.61,1.68,0.61,2.29,0l17-17c0.63-0.63,0.63-1.66,0-2.29
					C211.52,155.78,211.11,155.62,210.69,155.62z"/>
			</g>
		</g>
		<g>
			<path class="st1" d="M193.69,136.8"/>
		</g>
	</g>
	<g>
		<g>
			<g>
				<path class="st0" d="M193.69,224.14c-0.89,0-1.79-0.33-2.48-0.99l-28.56-26.96c-1.45-1.37-1.52-3.66-0.15-5.12
					c1.37-1.45,3.66-1.52,5.12-0.15l28.56,26.96c1.45,1.37,1.52,3.66,0.15,5.12C195.61,223.76,194.65,224.14,193.69,224.14z"/>
				<path class="st0" d="M193.69,226.14c-1.44,0-2.81-0.54-3.86-1.53l-28.56-26.96c-2.25-2.13-2.36-5.69-0.23-7.95
					c1.03-1.09,2.43-1.72,3.93-1.76c1.49-0.05,2.93,0.5,4.02,1.53l28.56,26.96c2.25,2.13,2.36,5.69,0.23,7.95
					C196.72,225.5,195.23,226.14,193.69,226.14z M165.13,191.94c-0.02,0-0.03,0-0.05,0c-0.43,0.01-0.83,0.19-1.13,0.51
					c-0.61,0.65-0.58,1.68,0.07,2.29l28.56,26.96c0.63,0.6,1.7,0.56,2.29-0.07c0.61-0.65,0.58-1.68-0.07-2.29l-28.56-26.96
					C165.94,192.1,165.55,191.94,165.13,191.94z"/>
			</g>
		</g>
		<g>
			<g>
				<path class="st0" d="M193.69,177.79c-0.93,0-1.85-0.35-2.56-1.06l-16.92-16.92c-1.41-1.41-1.41-3.71,0-5.12
					c1.41-1.41,3.71-1.41,5.12,0l16.92,16.92c1.41,1.41,1.41,3.71,0,5.12C195.55,177.43,194.62,177.79,193.69,177.79z"/>
				<path class="st0" d="M193.69,179.79c-1.5,0-2.91-0.58-3.97-1.65l-16.92-16.92c-2.19-2.19-2.19-5.76,0-7.95
					c2.19-2.19,5.76-2.19,7.95,0l16.92,16.92c1.06,1.06,1.65,2.47,1.65,3.97s-0.58,2.91-1.65,3.97S195.19,179.79,193.69,179.79z
					 M176.77,155.62c-0.42,0-0.83,0.16-1.15,0.47c-0.63,0.63-0.63,1.66,0,2.29l16.92,16.92c0.61,0.61,1.68,0.61,2.29,0
					c0.31-0.31,0.47-0.71,0.47-1.15c0-0.43-0.17-0.84-0.47-1.15l-16.92-16.92C177.6,155.78,177.18,155.62,176.77,155.62z"/>
			</g>
		</g>
	</g>
	<g>
		<g>
			<path class="st0" d="M223.19,251.96c-11.55,0-22.24-5.08-29.5-13.8c-7.26,8.72-17.96,13.8-29.5,13.8
				c-21.2,0-38.44-17.24-38.44-38.44c0-12.6,6.15-24.28,16.31-31.44c-5.04-6.65-7.77-14.72-7.77-23.16
				c0-15.14,8.72-28.65,22.36-34.92c4.85-16.21,19.73-27.37,36.81-27.37c17.23,0,32.15,11.29,36.91,27.68
				c13.24,6.41,21.7,19.8,21.7,34.62c0,8.23-2.61,16.15-7.43,22.71c10.58,7.1,16.99,18.96,16.99,31.89
				C261.63,234.71,244.39,251.96,223.19,251.96z M193.69,228.38C193.69,228.38,193.69,228.38,193.69,228.38
				c1.25,0,2.4,0.64,3.07,1.7c5.75,9.17,15.64,14.64,26.43,14.64c17.2,0,31.2-14,31.2-31.2c0-11.71-6.47-22.33-16.89-27.72
				c-1-0.52-1.71-1.48-1.9-2.59c-0.19-1.11,0.14-2.26,0.91-3.09c5.37-5.79,8.32-13.32,8.32-21.2c0-12.51-7.44-23.78-18.95-28.7
				c-1.05-0.45-1.83-1.37-2.1-2.48c-3.39-14.05-15.86-23.87-30.33-23.87c-14.36,0-26.81,9.72-30.27,23.64
				c-0.28,1.13-1.08,2.05-2.16,2.48c-11.85,4.79-19.51,16.15-19.51,28.93c0,8.05,3.06,15.69,8.62,21.52
				c0.78,0.82,1.13,1.95,0.96,3.06c-0.17,1.11-0.86,2.08-1.84,2.62c-10.04,5.48-16.27,15.97-16.27,27.4c0,17.2,14,31.2,31.2,31.2
				c10.79,0,20.68-5.47,26.43-14.64C191.29,229.02,192.45,228.38,193.69,228.38z"/>
			<path class="st0" d="M223.19,253.96c-11.27,0-21.89-4.63-29.5-12.78c-7.61,8.15-18.24,12.78-29.5,12.78
				c-22.3,0-40.44-18.14-40.44-40.44c0-12.47,5.77-24.23,15.54-31.87c-4.58-6.71-7-14.52-7-22.73c0-15.45,8.88-29.62,22.71-36.35
				c5.4-16.75,20.75-27.94,38.46-27.94c17.87,0,33.26,11.32,38.57,28.27c13.62,6.95,22.04,20.67,22.04,36.02
				c0,7.98-2.29,15.62-6.65,22.22c10.19,7.6,16.21,19.56,16.21,32.38C263.63,235.81,245.49,253.96,223.19,253.96z M193.69,235.03
				l1.54,1.85c6.92,8.31,17.11,13.08,27.96,13.08c20.09,0,36.44-16.35,36.44-36.44c0-12.17-6.02-23.47-16.1-30.23l-1.73-1.16
				l1.23-1.68c4.61-6.28,7.04-13.72,7.04-21.52c0-14.1-7.88-26.68-20.57-32.81l-0.8-0.39l-0.25-0.86
				c-4.55-15.69-18.61-26.23-34.99-26.23c-16.23,0-30.26,10.43-34.9,25.95l-0.26,0.87l-0.82,0.38c-13.07,6.01-21.2,18.69-21.2,33.1
				c0,8.01,2.55,15.6,7.36,21.96l1.25,1.65l-1.69,1.19c-9.68,6.82-15.46,17.96-15.46,29.8c0,20.09,16.35,36.44,36.44,36.44
				c10.85,0,21.04-4.77,27.96-13.08L193.69,235.03z M223.19,246.71c-11.49,0-22.01-5.82-28.13-15.58c-0.3-0.48-0.81-0.76-1.37-0.76
				h0c-0.56,0-1.07,0.28-1.37,0.76c-6.13,9.75-16.64,15.58-28.13,15.58c-18.31,0-33.2-14.89-33.2-33.2
				c0-12.16,6.64-23.33,17.32-29.16c0.44-0.24,0.75-0.68,0.83-1.17s-0.08-1.01-0.43-1.37c-5.92-6.2-9.17-14.34-9.17-22.9
				c0-13.6,8.15-25.68,20.76-30.78c0.48-0.19,0.84-0.61,0.96-1.11c3.68-14.81,16.93-25.16,32.21-25.16
				c15.4,0,28.67,10.44,32.27,25.4c0.12,0.5,0.47,0.91,0.94,1.11c12.25,5.24,20.16,17.23,20.16,30.54c0,8.39-3.15,16.41-8.86,22.56
				c-0.34,0.37-0.5,0.88-0.41,1.38c0.09,0.5,0.41,0.93,0.85,1.16c11.09,5.73,17.97,17.03,17.97,29.49
				C256.39,231.82,241.5,246.71,223.19,246.71z M193.69,226.38c1.95,0,3.73,0.98,4.76,2.63c5.38,8.58,14.63,13.7,24.74,13.7
				c16.1,0,29.2-13.1,29.2-29.2c0-10.96-6.06-20.9-15.81-25.94c-1.55-0.8-2.65-2.31-2.96-4.03c-0.3-1.72,0.23-3.51,1.42-4.79
				c5.02-5.42,7.79-12.46,7.79-19.84c0-11.71-6.96-22.25-17.73-26.86c-1.62-0.7-2.84-2.13-3.25-3.85
				c-3.17-13.15-14.84-22.34-28.38-22.34c-13.44,0-25.09,9.1-28.32,22.12c-0.43,1.74-1.68,3.18-3.35,3.85
				c-11.09,4.49-18.26,15.11-18.26,27.07c0,7.53,2.87,14.68,8.07,20.14c1.2,1.26,1.75,3.03,1.49,4.75
				c-0.27,1.72-1.34,3.24-2.86,4.07c-9.4,5.12-15.23,14.95-15.23,25.65c0,16.1,13.1,29.2,29.2,29.2c10.1,0,19.35-5.12,24.74-13.71
				C189.97,227.36,191.75,226.38,193.69,226.38z"/>
		</g>
	</g>
</g>
<g>
	<path class="st0" d="M109.79,186.95H66.73c-1.99,0-3.61-1.62-3.61-3.61s1.62-3.61,3.61-3.61h43.07c1.99,0,3.61,1.62,3.61,3.61
		S111.79,186.95,109.79,186.95z"/>
	<path class="st0" d="M109.79,188.95H66.73c-3.09,0-5.61-2.52-5.61-5.61c0-3.09,2.52-5.61,5.61-5.61h43.07
		c3.09,0,5.61,2.52,5.61,5.61C115.4,186.43,112.89,188.95,109.79,188.95z M66.73,181.73c-0.89,0-1.61,0.72-1.61,1.61
		c0,0.89,0.72,1.61,1.61,1.61h43.07c0.89,0,1.61-0.72,1.61-1.61c0-0.89-0.72-1.61-1.61-1.61H66.73z"/>
</g>
<g>
	<path class="st0" d="M88.26,208.48c-1.99,0-3.61-1.62-3.61-3.61v-43.07c0-1.99,1.62-3.61,3.61-3.61s3.61,1.62,3.61,3.61v43.07
		C91.87,206.87,90.25,208.48,88.26,208.48z"/>
	<path class="st0" d="M88.26,210.48c-3.09,0-5.61-2.52-5.61-5.61v-43.07c0-3.09,2.52-5.61,5.61-5.61c3.09,0,5.61,2.52,5.61,5.61
		v43.07C93.87,207.97,91.35,210.48,88.26,210.48z M88.26,160.2c-0.89,0-1.61,0.72-1.61,1.61v43.07c0,0.89,0.72,1.61,1.61,1.61
		c0.89,0,1.61-0.72,1.61-1.61v-43.07C89.87,160.92,89.15,160.2,88.26,160.2z"/>
</g>
</svg>
